# Blender v2.79 (sub 0) OBJ File: 'cubo.blend'
# www.blender.org
mtllib cubo.mtl
o Cube
v 0.145510 -0.036898 -0.050409
v 0.069378 -0.096232 0.104889
v -0.085762 -0.132263 0.015068
v -0.009630 -0.072928 -0.140230
v 0.085762 0.132263 -0.015068
v 0.009630 0.072928 0.140230
v -0.145510 0.036898 0.050409
v -0.069378 0.096232 -0.104889
vt 0.333333 0.666667 0.000000
vt 0.000000 1.000000 0.000000
vt 0.000000 0.666667 0.000000
vt 0.666667 0.666667 0.000000
vt 0.333333 0.333333 0.000000
vt 0.666667 0.333333 0.000000
vt 0.333333 0.333333 0.000000
vt 0.666667 0.000000 0.000000
vt 0.666667 0.333333 0.000000
vt 0.000000 0.000000 0.000000
vt 0.333333 0.333333 0.000000
vt 0.000000 0.333333 0.000000
vt 1.000000 0.333333 0.000000
vt 0.666667 0.000000 0.000000
vt 1.000000 0.000000 0.000000
vt 0.333333 0.333333 0.000000
vt 0.000000 0.666667 0.000000
vt 0.000000 0.333333 0.000000
vt 0.333333 1.000000 0.000000
vt 0.333333 0.666667 0.000000
vt 0.333333 0.000000 0.000000
vt 0.333333 0.000000 0.000000
vt 0.666667 0.333333 0.000000
vt 0.333333 0.666667 0.000000
vn 0.3268 -0.9251 -0.1933
vn -0.3268 0.9251 0.1933
vn 0.8485 0.1970 0.4912
vn -0.4164 -0.3245 0.8493
vn -0.8485 -0.1970 -0.4912
vn 0.4164 0.3245 -0.8493
usemtl Material.001
s off
f 2/1/1 4/2/1 1/3/1
f 8/4/2 6/5/2 5/6/2
f 5/7/3 2/8/3 1/9/3
f 6/10/4 3/11/4 2/12/4
f 3/13/5 8/14/5 4/15/5
f 1/16/6 8/17/6 5/18/6
f 2/1/1 3/19/1 4/2/1
f 8/4/2 7/20/2 6/5/2
f 5/7/3 6/21/3 2/8/3
f 6/10/4 7/22/4 3/11/4
f 3/13/5 7/23/5 8/14/5
f 1/16/6 4/24/6 8/17/6
