# Blender v2.79 (sub 0) OBJ File: ''
# www.blender.org
mtllib estrella.mtl
o Star
v 0.113689 0.231532 0.086760
v 0.038747 0.118845 0.085763
v 0.292219 0.213167 0.096644
v 0.027793 0.389186 0.078110
v -0.045057 0.224868 0.078574
v -0.221495 0.191602 0.070152
v -0.087989 0.071683 0.080322
v -0.111138 -0.106530 0.083767
v 0.044224 -0.016326 0.089589
v 0.206355 -0.093203 0.100140
v 0.168868 0.082466 0.093568
v 0.120805 0.227996 -0.048342
v 0.299335 0.209631 -0.038459
v 0.034909 0.385650 -0.056993
v -0.037942 0.221332 -0.056529
v -0.214380 0.188066 -0.064951
v -0.080873 0.068147 -0.054781
v -0.104022 -0.110067 -0.051335
v 0.051339 -0.019863 -0.045514
v 0.213471 -0.096739 -0.034962
v 0.175984 0.078930 -0.041535
v 0.045863 0.115308 -0.049340
vt 0.165279 0.149769
vt 0.239195 0.251504
vt 0.000000 0.173785
vt 0.239195 0.000000
vt 0.313110 0.149769
vt 0.478389 0.173785
vt 0.358792 0.290364
vt 0.387025 0.454975
vt 0.239195 0.377256
vt 0.091364 0.454975
vt 0.119597 0.290364
vt 0.636940 0.584657
vt 0.703111 0.404058
vt 0.765952 0.501195
vt 0.574099 0.487519
vt 0.507928 0.668118
vt 0.445087 0.570980
vt 0.378916 0.751580
vt 0.316075 0.654442
vt 0.187062 0.737903
vt 0.120891 0.918503
vt 0.058049 0.821364
vt 0.460077 0.743886
vt 0.627995 0.755857
vt 0.515078 0.828906
vt 0.685911 0.597788
vt 0.740912 0.682808
vt 0.798828 0.524739
vt 0.853829 0.609759
vt 0.966747 0.536710
vt 0.894964 0.417734
vt 0.832123 0.320596
vt 0.238273 0.252876
vt 0.238814 0.375826
vt 0.094612 0.452449
vt 0.383684 0.451177
vt 0.355372 0.290355
vt 0.471803 0.175860
vt 0.310103 0.153089
vt 0.237191 0.006976
vt 0.165567 0.153725
vt 0.004074 0.177918
vt 0.121508 0.291384
vt 0.249903 0.835041
vt 0.572994 0.670837
vt 0.911745 0.451691
vn -0.0526 0.0261 0.9983
vn 0.1034 0.9944 -0.0206
vn 0.8768 0.4796 0.0336
vn -0.9127 0.4045 -0.0587
vn -0.1835 0.9824 -0.0354
vn -0.6675 -0.7445 -0.0157
vn -0.9903 0.1276 -0.0555
vn 0.5001 -0.8646 0.0490
vn -0.4285 -0.9035 0.0011
vn 0.9766 0.2101 0.0459
vn 0.7255 -0.6860 0.0562
vn 0.0526 -0.0261 -0.9983
vn 0.8769 0.4796 0.0336
g Star_Star_Material.008
usemtl Material.008
s off
f 1/1/1 2/2/1 3/3/1
f 2/2/1 1/1/1 4/4/1
f 2/2/1 4/4/1 5/5/1
f 2/2/1 5/5/1 6/6/1
f 2/2/1 6/6/1 7/7/1
f 2/2/1 7/7/1 8/8/1
f 2/2/1 8/8/1 9/9/1
f 2/2/1 9/9/1 10/10/1
f 2/2/1 10/10/1 11/11/1
f 2/2/1 11/11/1 3/3/1
f 12/12/2 3/13/2 13/14/2
f 1/15/3 14/16/3 4/17/3
f 4/17/4 15/18/4 5/19/4
f 15/18/5 6/20/5 5/19/5
f 6/20/6 17/21/6 7/22/6
f 17/23/7 8/24/7 7/25/7
f 8/24/8 19/26/8 9/27/8
f 9/27/9 20/28/9 10/29/9
f 20/28/10 11/30/10 10/29/10
f 21/31/11 3/13/11 11/32/11
f 22/33/12 12/34/12 13/35/12
f 12/34/12 22/33/12 14/36/12
f 14/36/12 22/33/12 15/37/12
f 15/37/12 22/33/12 16/38/12
f 16/38/12 22/33/12 17/39/12
f 17/39/12 22/33/12 18/40/12
f 18/40/12 22/33/12 19/41/12
f 19/41/12 22/33/12 20/42/12
f 20/42/12 22/33/12 21/43/12
f 21/43/12 22/33/12 13/35/12
f 12/12/2 1/15/2 3/13/2
f 1/15/13 12/12/13 14/16/13
f 4/17/4 14/16/4 15/18/4
f 15/18/5 16/44/5 6/20/5
f 6/20/6 16/44/6 17/21/6
f 17/23/7 18/45/7 8/24/7
f 8/24/8 18/45/8 19/26/8
f 9/27/9 19/26/9 20/28/9
f 20/28/10 21/46/10 11/30/10
f 21/31/11 13/14/11 3/13/11
